<svg width="229" height="498" viewBox="0 0 229 498" version="1.0" id="body_back" fill="none" xmlns="http://www.w3.org/2000/svg">
<path d="M113.807 233.454V263.335C113.305 267.353 109.083 272.757 98.7978 272.757C82.9384 272.757 71.8902 269.109 67.6055 242.838C67.6055 242.838 68.3749 235.965 70.3836 229.436C72.3924 222.908 75.5984 217.445 75.5984 217.445C78.6116 213.762 84.9591 206.086 97.2349 211.107C108.283 215.627 112.803 227.092 113.807 233.454Z" fill="#BDBDBD" stroke="white" stroke-width="1.00438" id="leftButtock"/>
<path d="M160.469 242.838C156.184 269.109 145.136 272.757 129.277 272.757C118.285 272.757 113.765 266.659 113.765 263.144V234.017C114.769 227.656 119.791 215.627 130.84 211.108C143.115 206.086 149.923 213.451 152.936 217.134C152.936 217.134 155.682 222.908 157.691 229.436M160.469 242.838C160.469 242.838 159.7 235.965 157.691 229.436M160.469 242.838L157.691 229.436" stroke="white" stroke-width="1.00438" fill="#BDBDBD" id="rightButtock"/>
<path d="M113.807 235.213C116.276 220.458 125.818 213.427 131.342 211.107H114.309H96.6904C102.207 213.017 110.752 219.955 113.807 235.213Z" fill="#BDBDBD" stroke="white" stroke-width="1.00438" id="sacrum"/>
<path d="M126.365 322.797C126.365 330.181 127.52 334.042 128.9 337.755C131.552 336.057 138.321 332.596 144.177 332.344C152.453 331.988 157.864 335.845 161.047 337.755C160.891 336.886 160.672 334.145 161.047 330.127C161.515 325.106 164.026 296.983 164.529 284.428C164.93 274.384 162.143 252.264 160.469 242.555C156.184 268.826 144.676 272.758 128.817 272.758C123.574 272.758 119.14 270.585 116.778 268.669C115.823 274.08 117.453 287.785 119.045 294.788C120.636 301.79 126.365 318.023 126.365 322.797Z" fill="#BDBDBD" stroke="white" stroke-width="1.00438" id="rightThigh"/>
<path d="M101.193 322.797C101.193 330.181 100.038 334.042 98.6583 337.755C96.0059 336.058 89.2371 332.596 83.3804 332.344C75.1049 331.989 69.694 335.845 66.5111 337.755C66.6674 336.887 66.8861 334.145 66.5111 330.128C66.0425 325.106 63.5315 296.983 63.0293 284.428C62.6276 274.384 65.9315 252.455 67.6054 242.746C71.8901 269.017 82.882 272.758 98.7413 272.758C103.984 272.758 108.432 270.777 110.794 268.86C111.749 274.271 110.105 287.785 108.513 294.788C106.922 301.79 101.193 318.023 101.193 322.797Z" fill="#BDBDBD" stroke="white" stroke-width="1.00438" id="leftThigh"/>
<path d="M164.867 378.816C161.515 360.259 161.655 352.398 161.973 347.305C162.124 344.889 161.434 341.29 161.047 337.755C157.864 335.845 152.453 331.989 144.177 332.344C138.321 332.596 131.552 336.058 128.9 337.755C129.533 340.047 130.028 341.889 130.503 343.168C130.715 346.775 131.394 354.371 132.413 355.899C136.232 363.538 136.406 371.81 134.948 376.907C136.645 374.36 141.823 369.268 148.952 369.268C156.082 369.268 162.533 375.633 164.867 378.816Z" fill="#BDBDBD" stroke="white" stroke-width="1.00438" id ="rightKnee"/>
<path d="M65.5797 347.373L65.5755 347.305C65.4245 344.889 66.1148 341.29 66.5019 337.755C69.6848 335.845 75.0957 331.989 83.3712 332.344C89.2278 332.596 95.9966 336.058 98.649 337.755C98.0161 340.047 97.5203 341.889 97.0455 343.168C96.8333 346.775 96.1543 354.371 95.1358 355.899C91.3163 363.538 91.2147 372.046 92.6729 377.142C90.9754 374.596 85.7412 369.61 78.6115 369.61C71.4819 369.61 65.3777 375.466 63.0436 378.649C66.38 360.174 65.8981 352.466 65.5797 347.373Z" fill="#BDBDBD" stroke="white" stroke-width="1.00438" id="leftKnee"/>
<path d="M148.952 369.268C156.082 369.268 162.533 375.633 164.867 378.816C165.744 382.945 166.094 395.723 160.469 413.802C154.844 431.881 153.773 453.81 153.94 462.515C152.601 460.339 148.919 455.987 144.901 455.987C140.883 455.987 136.591 460.339 134.948 462.515C134.583 460.674 134.656 455.283 137.87 448.454C141.084 441.624 140.214 426.859 139.377 420.331C136.424 413.813 131.404 396.002 134.948 376.906C136.645 374.36 141.823 369.268 148.952 369.268Z" fill="#BDBDBD" stroke="white" stroke-width="1.00438" id="rightLeg"/>
<path d="M143.223 466.026C139.169 466.503 136.327 472.286 135.902 474.302C135.721 473.219 135.359 469.947 135.359 467.537C135.359 465.126 135.085 463.352 134.948 462.515C136.591 460.339 140.883 455.986 144.901 455.986C148.918 455.986 152.601 460.339 153.94 462.515C153.72 464.67 153.496 469.789 154.363 473.029C152.453 470.481 148.634 465.391 143.223 466.026Z" fill="#BDBDBD" stroke="white" stroke-width="1.00438" id="rightAnkle"/>
<path d="M162.156 495.301C166.23 495.301 165.311 492.967 164.343 491.8C161.325 486.537 155.103 475.414 154.363 473.029C152.453 470.48 148.634 465.39 143.223 466.026C139.169 466.503 136.327 472.286 135.902 474.302C136.391 475.06 137.368 476.877 137.368 478.083C137.368 479.589 135.55 489.115 137.966 493.392C141.785 499.248 148.681 496.681 151.652 494.665C156.108 497.529 157.063 495.301 162.156 495.301Z" fill="#BDBDBD" stroke="white" stroke-width="1.00438" id="rightSoleOfFoot"/>
<path d="M65.315 495.302C61.2409 495.302 62.1592 492.968 63.1275 491.801C66.1459 486.537 72.3476 475.446 73.0875 473.061C74.9972 470.513 78.8367 465.391 84.2476 466.027C88.3017 466.503 91.2442 472.05 91.6686 474.066C91.18 474.824 90.1024 476.878 90.1024 478.083C90.1024 479.59 91.9206 489.116 89.5049 493.392C85.6855 499.249 78.7892 496.681 75.8185 494.665C71.3625 497.53 70.4076 495.302 65.315 495.302Z" fill="#BDBDBD" stroke="white" stroke-width="1.00438" id="leftSoleOfFoot"/>
<path d="M84.2274 466.026C88.2816 466.503 91.244 472.049 91.6684 474.065C91.8494 472.982 92.0942 469.946 92.1706 467.537C92.2502 465.026 92.5356 463.352 92.6728 462.515C91.029 460.339 86.5669 455.986 82.5494 455.986C78.5318 455.986 74.8491 460.339 73.5099 462.515C73.7304 464.67 73.9545 469.821 73.0873 473.061L73.1054 473.037C75.0212 470.48 78.8336 465.393 84.2274 466.026Z" fill="#BDBDBD" stroke="white" stroke-width="1.00438" id="leftAnkle"/>
<path d="M78.6548 369.609C71.5251 369.609 65.3777 375.466 63.0436 378.649C62.166 382.778 61.5136 396.065 67.1382 414.144C72.7627 432.223 73.757 453.81 73.5896 462.515C74.9288 460.339 78.6116 455.986 82.6291 455.986C86.6466 455.986 91.0291 460.339 92.6729 462.515C93.0379 460.674 92.9508 455.625 89.7368 448.795C86.5228 441.966 87.3933 427.201 88.2303 420.673C91.1831 414.154 96.2163 396.238 92.673 377.142C90.9754 374.596 85.7845 369.609 78.6548 369.609Z" fill="#BDBDBD" stroke="white" stroke-width="1.00438" id="leftLeg"/>
<path d="M214.203 250.087C211.306 256.915 215.204 261.88 217.217 263.144C216.21 267.675 210.677 276.449 198.603 276.196C197.295 276.091 193.276 275.706 191.103 274.695C190.485 272.557 189.372 267.097 189.863 262.362C190.355 257.627 190.641 253.236 190.601 251.092C192.609 251.594 195.412 251.971 198.636 251.091C204.16 249.585 207.83 246.811 209.182 245.567L214.203 250.087Z" fill="#BDBDBD" stroke="white" stroke-width="1.00438" id="rightDorsumOfHand"/>
<path d="M219.338 254.875C217.997 253.917 215.545 251.684 214.203 250.088C210.985 256.984 214.981 261.868 217.217 263.145C217.485 264.677 219.673 264.773 221.35 266.688C225.252 270.678 228.265 267.665 227.72 265.731C226.826 264.56 224.904 261.899 224.367 260.622C223.697 259.026 220.679 255.833 219.338 254.875Z" fill="#BDBDBD" stroke="white" stroke-width="1.00438" id="rightThumb"/>
<path d="M218.723 292.539L217.217 263.145C216.632 264.6 215.82 266.836 214.552 268.676C213.103 270.894 208.177 274.193 204.16 275.197C200.142 276.202 197.129 276.202 191.103 274.695C192.455 280.612 195.814 293.342 196.423 295.236C197.031 297.129 198.05 297.457 198.484 297.385C200.211 297.129 200.353 295.762 200.353 294.478L200.606 288.662L202.001 294.478C202.762 298.128 204.084 299.969 205.641 299.969C206.887 299.969 207.614 299.323 207.822 299C208.037 300.068 209.481 301.854 211.51 301.152C213.944 300.311 213.803 296.352 213.428 294.478C216.917 297.579 218.723 294.478 218.723 292.539Z" fill="#BDBDBD" stroke="white" stroke-width="1.00438" id="rightFingers"/>
<path d="M14.352 250.087C17.2498 256.915 13.3512 261.88 11.3388 263.144C12.345 267.675 17.8781 276.449 29.9525 276.196C31.2606 276.091 35.2794 275.706 37.4528 274.695C38.0707 272.557 39.1838 267.097 38.6923 262.362C38.2009 257.627 37.914 253.236 37.9549 251.092C35.9462 251.594 33.1437 251.971 29.9198 251.091C24.3957 249.585 20.7254 246.811 19.3738 245.567L14.352 250.087Z" fill="#BDBDBD" stroke="white" stroke-width="1.00438" id="leftDorsumOfHand"/>
<path d="M9.21747 254.875C10.5586 253.917 13.0108 251.684 14.3519 250.088C17.5706 256.984 13.574 261.868 11.3388 263.145C11.0705 264.677 8.88218 264.773 7.20577 266.688C3.30368 270.678 0.290524 267.665 0.835404 265.731C1.72948 264.56 3.6518 261.899 4.18824 260.622C4.8588 259.026 7.87634 255.833 9.21747 254.875Z" fill="#BDBDBD" stroke="white" stroke-width="1.00438" id="leftThumb"/>
<path d="M9.83223 292.539L11.3388 263.145C11.9238 264.6 12.7352 266.836 14.0031 268.676C15.4521 270.894 20.3783 274.193 24.3958 275.197C28.4134 276.202 31.4265 276.202 37.4528 274.695C36.1005 280.612 32.7415 293.342 32.1329 295.236C31.5244 297.129 30.5051 297.457 30.0715 297.385C28.3448 297.129 28.2027 295.762 28.2027 294.478L27.9491 288.662L26.5545 294.478C25.7938 298.128 24.4716 299.969 22.9142 299.969C21.6683 299.969 20.9415 299.323 20.7339 299C20.5188 300.068 19.0744 301.854 17.0459 301.152C14.6117 300.311 14.7526 296.352 15.1273 294.478C11.6388 297.579 9.83223 294.478 9.83223 292.539Z" fill="#BDBDBD" stroke="white" stroke-width="1.00438" id="leftFingers"/>
<path d="M180.557 177.463C186.583 175.856 190.433 170.767 191.605 168.424C191.605 159.183 187.252 141.138 185.076 133.27C186.683 125.637 185.411 116.363 184.574 112.68C177.744 109.466 169.006 109.165 165.491 109.667C165.491 122.925 161.808 137.288 159.967 142.812V156.873L167.5 176.961C169.341 177.798 174.53 179.07 180.557 177.463Z" fill="#BDBDBD" stroke="white" stroke-width="1.00438" id="rightArm"/>
<path d="M168.504 193.545C180.726 188.962 192.383 187.816 196.627 187.816C195.622 181.79 192.81 171.445 191.605 168.23C190.433 170.574 186.583 175.663 180.557 177.27C174.53 178.877 169.341 177.605 167.5 176.768C167.5 181.592 167.7 191.7 168.504 193.545Z" fill="#BDBDBD" stroke="white" stroke-width="1.00438" id="rightElbow"/>
<path d="M60.0305 193.339C47.8082 188.756 36.1516 187.815 31.9077 187.815C32.9121 181.789 35.7244 170.942 36.9296 167.728C38.1014 170.071 41.9516 175.16 47.9779 176.767C54.0042 178.374 59.1935 177.102 61.0349 176.265C61.0349 181.089 60.834 191.495 60.0305 193.339Z" fill="#BDBDBD" stroke="white" stroke-width="1.00438" id="leftElbow"/>
<path d="M47.9779 176.961C41.9515 175.354 38.1014 170.265 36.9296 167.922C36.9296 158.681 41.282 141.332 43.4581 133.464C41.8511 125.831 43.1233 116.17 43.9603 112.487C50.7901 109.273 59.5283 108.972 63.0436 109.474C63.0436 122.732 66.7264 137.482 68.5677 143.006V157.067L61.0349 176.459C59.1935 177.296 54.0042 178.568 47.9779 176.961Z" fill="#BDBDBD" stroke="white" stroke-width="1.00438" id="leftArm"/>
<path d="M114.488 1C89.9797 1 86.7585 23.7046 90.7902 35.0568C88.8804 35.6934 85.6339 38.749 87.9256 45.8786C90.2172 53.0083 93.5487 53.7298 94.9279 53.1993C94.9279 54.6846 95.2462 58.0373 96.5193 59.565C99.0485 62.4104 105.218 66.9327 114.526 66.9327C122.794 66.9327 129.917 62.4104 132.446 59.565C133.719 58.0373 134.038 54.6846 134.038 53.1993C135.417 53.7298 138.748 53.0083 141.04 45.8786C143.332 38.749 140.085 35.6934 138.175 35.0568C142.207 23.7046 138.996 1 114.488 1Z" fill="#BDBDBD" stroke="white" stroke-width="1.00438" id="dorsumOfHead"/>
<path d="M114.759 82.5011C121.977 82.5197 137.915 83.3758 145.393 84.0077C142.212 83.0033 135.148 80.4923 132.336 76.4747V59.6768C129.992 62.1877 122.963 66.9331 114.526 66.9331C106.089 66.9331 99.5258 62.7429 97.1823 60.2319V76.4747C94.37 80.4923 87.3058 83.0033 84.1252 84.0077C91.6026 83.3758 107.536 82.5197 114.759 82.5011ZM114.759 82.5011C114.706 82.501 114.309 82.5011 114.257 82.5011" fill="#BDBDBD" stroke="white" stroke-width="1.00438" id="neck"/>
<path d="M142.525 210.437C136.478 209.164 132.977 210.752 130.748 211.391L131.704 186.244C120.755 181.406 115.742 173.447 114.257 170.158C112.78 173.439 107.797 181.151 96.9111 185.977L97.6949 211.419C95.4797 210.782 92.1647 208.838 86.1522 210.107C81.136 211.166 77.1806 215.753 75.5984 217.445C77.1806 211.096 76.6578 186.612 76.3413 180.262C76.0959 175.338 71.4683 163.252 68.9754 157.312C68.8243 156.952 68.7236 156.575 68.6899 156.186C68.4674 153.616 68.258 147.908 68.404 143.231C68.4194 142.736 68.3508 142.253 68.1969 141.782C64.6003 130.796 59.6787 106.457 66.288 90.7212C66.6333 89.8991 67.2745 89.2428 68.098 88.9061C71.959 87.3277 77.8987 85.3461 84.1254 84.0076C91.5594 83.3773 107.08 82.5194 114.257 82.501C121.475 82.5195 137.915 83.3757 145.393 84.0076C151.656 85.3496 156.801 87.3402 160.684 88.9227C161.513 89.2602 162.158 89.9182 162.505 90.7424C169.153 106.519 164.202 130.921 160.585 141.936C160.43 142.407 160.361 142.892 160.377 143.388C160.523 148.077 160.313 153.8 160.089 156.376C160.055 156.767 159.954 157.144 159.802 157.505C157.294 163.461 152.64 175.578 152.393 180.515C152.075 186.881 151.438 211.071 153.029 217.436C151.438 215.739 147.571 211.498 142.525 210.437Z" fill="#BDBDBD" stroke="white" stroke-width="1.00438" id="back"/>
<path d="M131.844 185.807C120.895 180.969 115.752 173.528 114.267 170.239C112.782 173.528 107.639 180.969 96.6904 185.807L97.6947 210.917H130.337L131.844 185.807Z" fill="#BDBDBD" stroke="white" stroke-width="1.00438" id="lumbus"/>
<path d="M184.574 112.487C179.876 110.207 171.598 109.37 165.726 109.473C165.675 108.1 165.39 104.05 164.989 100.434C164.451 95.5978 162.31 91.5619 161.473 89.3857C179.552 92.9011 183.51 106.537 184.574 112.487Z" fill="#BDBDBD" stroke="white" stroke-width="1.00438" id="rightShoulder"/>
<path d="M43.9603 112.487C48.6585 110.207 57.1765 109.37 63.048 109.473C63.0996 108.1 63.3493 104.05 63.7511 100.434C64.2884 95.5978 66.4294 91.5619 67.2664 89.3857C49.1875 92.9011 45.0242 106.537 43.9603 112.487Z" fill="#BDBDBD" stroke="white" stroke-width="1.00438" id="leftShoulder"/>
<path d="M168.504 193.545C181.561 188.82 192.383 187.815 196.627 187.815C197.464 191.666 199.339 201.174 200.142 208.405C200.946 215.637 203.605 229.958 204.834 236.215C203.136 237.807 197.386 240.799 187.964 240.035C187.337 237.515 179.552 222.969 175.032 214.432C171.417 207.602 169.174 197.661 168.504 193.545Z" fill="#BDBDBD" stroke="white" stroke-width="1.00438" id="rightForearm"/>
<path d="M190.6 251.092C199.003 253.384 206.423 247.902 209.182 245.568L206.168 243.057L204.834 236.216C203.136 237.807 197.386 240.799 187.964 240.035C188.843 242.382 190.6 247.878 190.6 251.092Z" fill="#BDBDBD" stroke="white" stroke-width="1.00438" id="rightWrist"/>
<path d="M37.944 251.092C29.5411 253.384 22.1113 247.902 19.3528 245.568L22.3759 243.057L23.8726 236.026C25.5701 237.618 31.0236 240.808 40.4449 240.044C39.5663 242.39 37.944 247.878 37.944 251.092Z" fill="#BDBDBD" stroke="white" stroke-width="1.00438" id="leftWrist"/>
<path d="M60.0304 193.34C47.4756 188.318 36.1257 187.815 31.8819 187.815C31.0449 191.666 29.1701 201.174 28.3666 208.405C27.5631 215.637 25.1017 229.769 23.8726 236.026C25.5701 237.617 31.0236 240.807 40.4449 240.043C41.0722 237.524 48.9565 222.969 53.4762 214.432C57.092 207.602 59.3609 197.456 60.0304 193.34Z" fill="#BDBDBD" stroke="white" stroke-width="1.00438" id="leftForearm"/>
</svg>
