<svg width="229" height="498" viewBox="0 0 229 498" version="1.0" id="body_front" fill="none" xmlns="http://www.w3.org/2000/svg">
<path d="M218.827 291.648L217.237 262.71C216.64 264.143 215.864 266.344 214.569 268.156C213.09 270.338 209.798 273.496 204.991 275.016C201.246 276.2 196.583 276.228 191.141 274.369C192.522 280.193 195.439 292.438 196.06 294.302C196.681 296.166 197.722 296.489 198.165 296.417C199.927 296.166 200.072 294.82 200.072 293.555L200.331 287.83L201.755 293.555C202.532 297.149 203.882 298.961 205.472 298.961C206.744 298.961 207.486 298.325 207.698 298.007C207.917 299.059 209.392 300.817 211.463 300.126C213.948 299.298 213.804 295.401 213.421 293.555C216.983 296.608 218.827 293.556 218.827 291.648Z" fill="#BDBDBD" stroke="white" id="leftFingers"/>
<path d="M10.0606 291.657L11.7433 262.72C12.3405 264.153 13.0244 266.353 14.3187 268.166C15.7981 270.348 19.0904 273.506 23.897 275.026C27.6416 276.21 32.3185 276.358 37.7599 274.498C36.3792 280.323 33.4493 292.448 32.828 294.312C32.2068 296.175 31.1662 296.499 30.7235 296.427C28.9606 296.175 28.8155 294.829 28.8155 293.565L28.5567 287.84L27.1329 293.565C26.3563 297.159 25.0064 298.971 23.4164 298.971C22.1444 298.971 21.4024 298.335 21.1904 298.017C20.9709 299.069 19.4962 300.827 17.4252 300.136C14.9401 299.308 15.0839 295.41 15.4665 293.565C11.905 296.618 10.0606 293.565 10.0606 291.657Z" fill="#BDBDBD" stroke="white" id="rightFingers"/>
<path d="M191.35 167.772C192.114 159.886 187.428 141.167 184.99 132.793C186.092 128.066 186.87 116.457 184.411 111.409C181.606 109.165 172.891 105.072 161.5 107.868C161.457 109.982 161.453 115.06 162.407 120.423C163.442 126.248 163.313 130.649 160.465 138.415C160.704 142.153 161.109 151.032 160.823 156.642C160.823 156.642 165.275 168.09 167.183 176.358C168.395 177.733 173.667 179.446 179.622 178.67C187.388 177.013 190.677 170.714 191.35 167.772Z" fill="#BDBDBD" stroke="white" id="leftArm"/>
<path d="M37.5839 167.772C36.8207 159.886 41.5058 141.167 43.9438 132.793C42.8427 128.066 42.0643 116.457 44.5236 111.409C47.328 109.165 56.0434 105.072 67.4337 107.868C67.4769 109.982 67.4812 115.06 66.5277 120.423C65.4922 126.248 65.6216 130.649 68.4692 138.415C68.2307 142.153 67.8252 151.032 68.1114 156.642C68.1114 156.642 63.6595 168.09 61.7515 176.358C60.5391 177.733 55.2667 179.446 49.3127 178.67C41.5465 177.013 38.2576 170.714 37.5839 167.772Z" fill="#BDBDBD" stroke="white" id="rightArm"/>
<path d="M132.592 76.0472L132.766 59.376C131.387 61.7058 129.401 64.6209 125.647 67.7893C122.485 70.4579 117.881 72.449 114.774 72.449C111.668 72.449 107.063 70.4579 103.902 67.7893C100.148 64.6209 98.2911 61.7058 96.9121 59.376L96.9568 76.0472C95.7909 77.9552 91.803 82.1527 85.6975 83.6791C82.2969 84.5293 77.4126 86.2016 72.1898 87.8519C82.4717 92.1978 104.787 99.5011 114.645 99.5011H114.774C124.632 99.5011 146.559 92.1978 156.841 87.8519C151.618 86.2016 147.122 84.5293 143.722 83.6791C137.616 82.1527 133.758 77.9552 132.592 76.0472Z" fill="#BDBDBD" stroke="white" id="neck"/>
<path d="M165.125 90.3108L156.841 87.8516C147.306 91.6915 125.491 99.3714 114.515 99.3714C103.539 99.3714 81.7247 91.6915 72.1896 87.8516L63.9057 90.3108C65.3295 91.6915 67.9409 98.077 67.216 112.574H75.3597C75.4028 119.175 75.7879 134.759 77.2376 144.803C75.3392 144.027 71.0247 141.8 68.4359 138.59C68.0476 142.905 67.4522 152.595 68.1771 156.841C68.8243 158.135 75.4255 174.056 75.6844 178.974C80.9049 167.714 95.8764 146.667 114.515 152.57C133.154 146.667 148.125 167.714 153.346 178.974C153.605 174.056 160.206 158.135 160.853 156.841C161.578 152.595 160.983 142.905 160.594 138.59C158.006 141.8 153.562 144.156 151.663 144.933C153.113 134.889 153.562 119.175 153.605 112.574H161.759C161.034 98.077 163.701 91.6915 165.125 90.3108Z" fill="#BDBDBD" stroke="white" id="chest"/>
<path d="M114.386 215.087C93.7797 215.087 79.748 209.429 75.2961 206.673C75.6929 202.584 75.7562 186.525 75.6844 178.974C80.905 167.713 95.8764 146.667 114.515 152.569C133.154 146.667 148.125 167.713 153.346 178.974C152.725 183.737 153.08 199.403 153.346 206.673C148.686 209.521 135.121 215.087 114.515 215.087H114.386Z" fill="#BDBDBD" stroke="white" id="abdomen"/>
<path d="M153.605 112.574H161.76C161.889 114.688 162.303 119.667 162.924 122.67C163.701 126.424 163.183 133.543 160.595 138.591C158.006 141.801 153.562 144.157 151.664 144.933C153.113 134.889 153.562 119.175 153.605 112.574Z" fill="#BDBDBD" stroke="white" id="leftArmpit"/>
<path d="M75.3681 112.574H67.2137C67.0842 114.688 66.67 119.667 66.0487 122.67C65.2721 126.424 65.7899 133.543 68.3786 138.591C70.9673 141.801 75.4113 144.157 77.3097 144.933C75.86 134.889 75.4113 119.175 75.3681 112.574Z" fill="#BDBDBD" stroke="white" id="rightArmpit"/>
<path d="M184.54 111.667C180.398 96.2387 169.784 91.0009 164.995 90.3105C161.889 94.2454 161.457 103.858 161.63 108.173C173.331 105.377 181.779 109.338 184.54 111.667Z" fill="#BDBDBD" stroke="white" id="leftShoulder"/>
<path d="M44.4905 111.538C48.6324 96.1093 59.2462 91.0009 64.0353 90.3105C67.1418 94.2454 67.5733 103.858 67.4007 108.173C55.6997 105.377 47.2518 109.208 44.4905 111.538Z" fill="#BDBDBD" stroke="white" id="rightShoulder"/>
<path d="M196.448 186.094C195.516 180.709 192.608 171.597 191.271 167.714C191.271 167.973 187.776 177.506 179.492 178.586C172.347 179.518 168.404 177.422 167.325 176.257C167.325 178.975 167.584 187.129 168.49 192.436C176.256 187.88 190.365 186.309 196.448 186.094Z" fill="#BDBDBD" stroke="white" id="leftElbow"/>
<path d="M168.49 192.436C176.256 187.88 190.365 186.309 196.448 186.094C197.441 190.365 199.736 201.885 200.979 213.793C202.221 225.701 203.999 233.856 204.732 236.444C202.877 237.954 196.94 240.767 188.035 239.939C184.281 232.561 176.205 216.485 173.926 211.204C171.079 204.603 169.267 198.778 168.49 192.436Z" fill="#BDBDBD" stroke="white" id="leftForearm"/>
<path d="M188.035 239.939C196.94 240.767 202.877 237.954 204.732 236.444L206.027 242.787L209.521 245.764C208.097 247.015 204.111 249.647 199.555 250.165C194.999 250.682 191.53 250.121 190.365 249.647C190.235 247.446 189.329 242.528 188.035 239.939Z" fill="#BDBDBD" stroke="white" id="leftWrist"/>
<path d="M214.685 250.311C211.632 257.179 215.109 261.44 217.229 262.712C216.169 267.27 210.869 276.323 198.149 276.068C196.771 275.962 193.443 275.496 191.153 274.478C190.502 272.328 189.329 266.836 189.847 262.073C190.365 257.309 190.408 251.804 190.365 249.647C191.53 250.121 194.999 250.682 199.555 250.164C204.111 249.647 208.098 247.015 209.521 245.764L214.685 250.311Z" fill="#BDBDBD" stroke="white" id="leftPalm"/>
<path d="M219.781 255.078C218.509 254.124 215.956 251.901 214.684 250.311C211.632 257.179 215.108 261.44 217.228 262.712C217.483 264.239 220.099 264.936 221.689 266.844C225.187 270.024 228.155 267.268 227.731 265.89C226.883 264.724 225.06 262.074 224.551 260.802C223.915 259.212 221.053 256.032 219.781 255.078Z" fill="#BDBDBD" stroke="white" id="leftThumb"/>
<path d="M14.3472 250.311C17.3999 257.179 13.8631 261.448 11.7432 262.72C12.8031 267.278 18.1631 276.323 30.8829 276.068C32.2609 275.962 35.4702 275.516 37.7598 274.498C38.4108 272.348 39.7024 266.836 39.1846 262.073C38.6669 257.309 38.6237 251.804 38.6669 249.647C37.502 250.121 34.0331 250.682 29.4769 250.164C24.9208 249.647 20.9342 247.015 19.5104 245.764L14.3472 250.311Z" fill="#BDBDBD" stroke="white" id="rightPalm"/>
<path d="M41.1252 239.939C32.22 240.767 26.2832 237.954 24.4279 236.444L23.1336 242.787L19.5093 245.764C20.9331 247.058 24.8162 249.647 29.6054 250.165C34.1643 250.657 37.5009 250.121 38.6659 249.647C38.7953 247.446 39.8308 242.528 41.1252 239.939Z" fill="#BDBDBD" stroke="white" id="rightWrist"/>
<path d="M60.5404 192.436C52.7743 187.88 38.6657 186.309 32.5823 186.094C31.5899 190.365 29.3742 201.894 28.052 213.793C26.7576 225.442 25.2044 233.338 24.4278 236.444C26.283 237.954 32.2198 240.767 41.125 239.939C44.8787 232.561 52.826 216.485 55.1041 211.204C57.9517 204.603 59.7638 198.778 60.5404 192.436Z" fill="#BDBDBD" stroke="white" id="rightForearm"/>
<path d="M32.5822 186.094C33.5141 180.709 36.2927 171.597 37.6302 167.714C37.6302 167.973 41.2544 177.506 49.5383 178.586C56.6831 179.518 60.6266 177.422 61.7053 176.257C61.7053 178.975 61.4464 187.129 60.5403 192.436C52.7742 187.88 38.6657 186.309 32.5822 186.094Z" fill="#BDBDBD" stroke="white" id="rightElbow"/>
<path d="M9.24947 255.078C10.5215 254.124 13.0744 251.901 14.3464 250.311C17.3991 257.179 13.9224 261.44 11.8024 262.712C11.548 264.239 8.93147 264.936 7.34149 266.844C3.84354 270.024 0.875566 267.268 1.29957 265.89C2.14755 264.724 3.97075 262.074 4.47954 260.802C5.11553 259.212 7.97749 256.032 9.24947 255.078Z" fill="#BDBDBD" stroke="white" id="rightThumb"/>
<path d="M154.641 218.582C153.605 215.372 153.389 209.306 153.346 206.674C153.346 206.674 151.534 207.839 148.557 209.004C145.58 210.169 144.415 210.557 144.415 210.557C145.235 217.805 147.47 232.872 149.852 240.845C152.233 248.818 159.473 251.976 162.795 251.976C161.76 241.622 155.935 222.594 154.641 218.582Z" fill="#BDBDBD" stroke="white" id="leftHip"/>
<path d="M74.0018 218.582C75.0373 215.372 75.253 209.306 75.2962 206.674C75.2962 206.674 77.1083 207.839 80.0853 209.004C83.0623 210.169 84.2273 210.557 84.2273 210.557C83.4075 217.805 81.1726 232.872 78.791 240.845C76.4093 248.818 69.1695 251.976 65.8474 251.976C66.8828 241.622 72.7075 222.594 74.0018 218.582Z" fill="#BDBDBD" stroke="white" id="rightHip"/>
<path d="M144.933 214.44L144.415 210.557C140.1 212.067 128.08 215.087 114.515 215.087C100.95 215.087 88.5418 212.067 84.2272 210.557L83.7095 214.44L87.0748 221.429L90.3107 227.772C94.5821 228.419 105.61 229.713 114.515 229.713C123.42 229.713 134.19 228.419 138.461 227.772L141.697 221.429L144.933 214.44Z" fill="#BDBDBD" stroke="white" id="pelvis"/>
<path d="M114.515 229.564C123.42 229.564 134.19 228.369 138.461 227.771C134.88 234.263 129.504 246.147 126.294 250.353C125.604 250.592 120.21 251.07 114.515 251.07C108.82 251.07 103.168 250.592 102.348 250.353C98.0769 243.503 91.7604 231.117 90.3108 227.771C94.5821 228.369 105.61 229.564 114.515 229.564Z" fill="#BDBDBD" stroke="white" id="groin"/>
<path d="M114.515 251.07C120.211 251.07 125.604 250.592 126.294 250.354C124.18 254.691 118.864 263.367 114.515 263.367C110.166 263.367 104.592 254.691 102.348 250.354C103.168 250.592 108.82 251.07 114.515 251.07Z" fill="#BDBDBD" stroke="white" id="pubis"/>
<path d="M146.956 343.796C157.896 341.506 162.114 344.75 162.856 346.658C162.761 344.695 162.438 340.096 161.906 337.404C161.472 335.203 161.685 332.065 161.906 331.079C162.754 326.627 166.804 288.213 164.768 266.844C164.55 264.034 163.362 255.761 162.795 251.976C159.473 251.976 152.233 248.818 149.851 240.844C147.47 232.871 145.753 221.688 144.933 214.439L141.697 221.429L138.461 227.771C134.88 234.263 129.504 246.147 126.294 250.353C124.607 253.815 120.88 260.04 117.234 262.412C117.658 263.472 118.659 266.971 118.659 271.295C117.705 292.601 127.245 315.179 127.563 322.811C127.817 328.916 130.658 338.893 132.248 343.875C132.566 344.829 136.017 346.086 146.956 343.796Z" fill="#BDBDBD" stroke="white" id="leftThigh"/>
<path d="M151.772 367.262C146.43 367.771 138.946 363.446 135.872 361.22C135.242 360.005 134.06 357.725 133.154 354.619C132.248 351.512 132.55 347.802 132.636 345.429L132.248 343.876C132.566 344.83 136.017 346.086 146.956 343.796C157.895 341.507 162.114 344.75 162.856 346.658C162.491 349.298 162.817 355.95 163.054 359.537C161.57 361.869 157.114 366.753 151.772 367.262Z" fill="#BDBDBD" stroke="white" id="leftKnee"/>
<path d="M143.379 460.627C147.448 459.755 153.074 459.297 154.77 459.721C156.012 456.821 155.546 453.249 155.158 448.201C154.77 443.153 155.029 437.716 156.452 431.503C157.876 425.291 162.665 408.464 164.348 402.769C165.694 398.213 166.031 392.5 166.031 390.213C166.652 383.069 164.305 366.786 163.054 359.537C161.57 361.869 157.114 366.753 151.772 367.262C146.429 367.77 138.946 363.446 135.872 361.22C136.217 362.687 136.824 364.844 137.296 369.245C137.684 372.869 137.296 373.387 136.26 382.059C135.225 390.731 135.225 403.157 137.684 412.606C140.143 422.055 140.402 429.821 140.661 434.61C140.92 439.399 138.978 446.647 137.037 450.531C135.484 453.637 135.354 457.089 135.484 458.426C137.074 460.228 139.311 461.498 143.379 460.627Z" fill="#BDBDBD" stroke="white" id="leftLeg"/>
<path d="M137.943 474.736C142.522 470.157 152.495 469.781 156.841 470.205C156.366 469.256 155.314 466.892 154.899 465.028C154.485 463.164 154.641 460.713 154.77 459.721C153.074 459.297 147.448 459.756 143.38 460.627C139.311 461.498 137.074 460.229 135.484 458.427C135.527 459.031 135.872 459.721 136.39 462.051C136.612 463.049 136.649 464.122 136.649 465.805C136.649 467.487 136.52 468.948 136.52 470.205C136.52 472.406 137.426 473.571 137.943 474.736Z" fill="#BDBDBD" stroke="white" id="leftAnkle"/>
<path d="M138.054 490.395C142.633 485.816 160.42 484.886 164.766 485.31C164.713 483.77 163.908 479.783 161.112 476.159C158.316 472.535 157.1 470.68 156.841 470.205C152.495 469.781 142.522 470.156 137.943 474.735C137.672 478.704 137.314 487.391 138.054 490.395Z" fill="#BDBDBD" stroke="white" id="leftFoot"/>
<path d="M138.054 490.396C142.633 485.817 160.42 484.887 164.766 485.311C164.972 486.877 164.84 490.32 162.666 491.563C162.234 492.469 160.879 494.074 158.912 493.245C158.308 494.281 156.556 496.093 154.382 495.057C153.993 495.446 152.803 496.196 151.146 496.093C149.489 495.989 148.73 494.928 148.557 494.41C148.082 495.618 146.305 497.724 142.991 496.481C139.678 495.239 138.319 491.907 138.054 490.396Z" fill="#BDBDBD" stroke="white" id="leftToes"/>
<path d="M90.5956 490.396C86.0165 485.817 68.2299 484.887 63.884 485.311C63.678 486.877 63.8095 490.32 65.984 491.563C66.4155 492.469 67.7702 494.074 69.7377 493.245C70.3417 494.281 72.0934 496.093 74.2679 495.057C74.6562 495.446 75.847 496.196 77.5038 496.093C79.1606 495.989 79.9199 494.928 80.0925 494.41C80.5671 495.618 82.3447 497.724 85.6583 496.481C88.9718 495.239 90.3305 491.907 90.5956 490.396Z" fill="#BDBDBD" stroke="white" id="rightToes"/>
<path d="M90.5957 490.395C86.0166 485.816 68.2301 484.886 63.8841 485.31C63.937 483.77 64.7416 479.783 67.5374 476.159C70.3332 472.535 71.5426 470.68 71.8015 470.205C76.1474 469.781 86.12 470.156 90.6992 474.735C90.9705 478.704 91.3356 487.391 90.5957 490.395Z" fill="#BDBDBD" stroke="white" id="rightFoot"/>
<path d="M90.6992 474.736C86.1201 470.157 76.1475 469.781 71.8015 470.205C72.2761 469.256 73.3289 466.892 73.7431 465.028C74.1573 463.164 74.002 460.713 73.8725 459.721C75.5685 459.297 81.1944 459.756 85.2629 460.627C89.3313 461.498 91.5685 460.229 93.1585 458.427C93.1153 459.031 92.7702 459.721 92.2524 462.051C92.0305 463.049 91.9936 464.122 91.9936 465.805C91.9936 467.487 92.123 468.948 92.123 470.205C92.123 472.406 91.2169 473.571 90.6992 474.736Z" fill="#BDBDBD" stroke="white" id="rightAnkle"/>
<path d="M85.2505 460.627C81.182 459.755 75.5682 459.297 73.8722 459.721C72.6296 456.821 73.0835 453.249 73.4718 448.201C73.8601 443.153 73.6012 437.716 72.1775 431.503C70.7537 425.291 65.9645 408.464 64.2819 402.769C62.9357 398.213 62.5992 392.5 62.5992 390.213C61.9779 383.069 64.337 366.786 65.5882 359.537C67.0722 361.869 71.5157 366.753 76.858 367.262C82.2003 367.77 89.6958 363.446 92.7698 361.22C92.4246 362.687 91.8055 364.844 91.334 369.245C90.9457 372.869 91.334 373.387 92.3695 382.059C93.405 390.731 93.405 403.157 90.9457 412.606C88.4864 422.055 88.2275 429.821 87.9687 434.61C87.7098 439.399 89.6513 446.647 91.5928 450.531C93.1461 453.637 93.2876 457.089 93.1581 458.426C91.5682 460.228 89.3189 461.498 85.2505 460.627Z" fill="#BDBDBD" stroke="white" id="rightLeg"/>
<path d="M76.8703 367.262C82.2126 367.771 89.6961 363.446 92.77 361.22C93.4004 360.005 94.5821 357.725 95.4882 354.619C96.3942 351.512 96.0922 347.802 96.0059 345.429L96.3942 343.876C96.0762 344.83 92.6249 346.086 81.6859 343.796C70.7469 341.507 66.5281 344.75 65.7862 346.658C66.1514 349.298 65.8248 355.95 65.5885 359.537C67.0725 361.869 71.5279 366.753 76.8703 367.262Z" fill="#BDBDBD" stroke="white" id="rightKnee"/>
<path d="M81.6859 343.796C70.7468 341.506 66.5281 344.75 65.7861 346.658C65.8812 344.695 66.2043 340.096 66.736 337.404C67.1705 335.203 66.9575 332.065 66.736 331.079C65.888 326.627 61.8388 288.213 63.874 266.844C64.0919 264.034 65.2803 255.761 65.8473 251.976C69.1695 251.976 76.4093 248.818 78.7909 240.844C81.1725 232.871 82.8897 221.688 83.7094 214.439L87.0748 221.429L90.3107 227.771C93.8917 234.263 99.7595 246.281 102.348 250.353C104.035 253.815 107.891 259.829 111.538 262.201C111.114 263.261 109.983 266.971 109.983 271.295C110.937 292.601 101.397 315.179 101.079 322.811C100.825 328.916 97.9841 338.893 96.3942 343.875C96.0762 344.829 92.6249 346.086 81.6859 343.796Z" fill="#BDBDBD" stroke="white" id="rightThigh"/>
<path d="M114.839 15.9434C123.537 15.9433 132.236 18.4861 139.96 23.5752C140 27.0952 139.51 34.8083 137.232 37.5006C136.11 37.5869 133.608 37.6559 132.572 37.2417C132.486 35.3433 130.786 31.5465 124.676 31.5465C120.405 31.5465 119.111 33.6175 118.334 35.4296L114.966 35.6791L111.355 35.4296C110.578 33.6175 109.284 31.5465 105.012 31.5465C98.903 31.5465 97.2031 35.3433 97.1168 37.2417C96.0813 37.6559 93.5789 37.5869 92.4571 37.5006C90.179 34.8083 89.6888 27.0952 89.7285 23.5752C97.4531 18.4861 106.152 15.9433 114.849 15.9434" fill="#BDBDBD" id="forehead" stroke="white"/>
<path d="M132.672 36.8643C133.713 37.2816 136.23 37.212 137.359 37.1251C136.36 39.8638 134.364 46.9585 134.364 53.4272C134.364 61.513 124.944 68.8163 122.991 69.8596C122.253 68.1642 119.523 64.7734 114.837 64.7734C110.15 64.7734 107.42 68.1642 106.682 69.8596C104.729 68.8163 95.3093 61.513 95.3093 53.4272C95.3093 46.9585 93.313 39.8638 92.3148 37.1251C93.4431 37.212 95.96 37.2816 97.0014 36.8643C97.2619 38.6466 99.1627 42.0288 104.682 41.2984C110.202 40.5681 111.471 37.0816 111.471 35.4297C111.732 36.9077 112.155 40.5681 111.322 43.3851C110.28 46.9063 108.067 49.2538 110.541 51.0797C111.686 51.81 113.882 51.8187 114.837 51.7318C115.791 51.8187 117.987 51.81 119.133 51.0797C121.606 49.2538 119.393 46.9063 118.352 43.3851C117.518 40.5681 117.942 36.9077 118.202 35.4297C118.202 37.0816 119.471 40.5681 124.991 41.2984C130.511 42.0288 132.412 38.6466 132.672 36.8643Z" fill="#BDBDBD" stroke="white" id="cheek"/>
<path d="M124.545 31.5472C130.887 31.4177 132.613 35.2145 132.699 37.1129C132.438 38.8953 130.381 42.0293 124.862 41.299C119.342 40.5687 118.202 37.0822 118.202 35.4303C118.979 33.6181 120.274 31.6343 124.545 31.5472Z" fill="#BDBDBD" stroke="white" id="leftEye"/>
<path d="M105.129 31.5472C98.7866 31.4177 97.0608 35.2145 96.9745 37.1129C97.235 38.8953 99.2921 42.0293 104.812 41.299C110.332 40.5687 111.471 37.0822 111.471 35.4303C110.695 33.6181 109.399 31.6343 105.129 31.5472Z" fill="#BDBDBD" stroke="white" id="rightEye"/>
<path d="M89.7264 23.705C105.164 13.5342 124.517 13.5242 139.97 23.705C139.664 16.1367 134.212 1 114.849 1C95.485 1 90.0323 16.1367 89.7264 23.705Z" fill="#BDBDBD" stroke="white" id="skull"/>
<path d="M141.825 43.9726C143.275 38.5881 140.293 35.6887 138.524 34.9121C138.105 35.4883 137.229 37.1125 136.518 39.4424C136.039 40.9078 135.461 42.4631 135.095 44.6198C134.163 50.1079 134.189 52.688 134.318 53.292C137.813 53.5509 140.013 50.7033 141.825 43.9726Z" fill="#BDBDBD" stroke="white" id="leftEar"/>
<path d="M87.8484 43.9726C86.3987 38.5881 89.381 35.6887 91.1499 34.9121C91.569 35.4883 92.4443 37.1125 93.1552 39.4424C93.6346 40.9078 94.2128 42.4631 94.579 44.6198C95.511 50.1079 95.4851 52.688 95.3557 53.292C91.8609 53.5509 89.6605 50.7033 87.8484 43.9726Z" fill="#BDBDBD" stroke="white" id="rightEar"/>
<path d="M118.332 35.3008L114.881 35.5597L111.342 35.3008C111.644 37.1129 112.144 41.288 111.213 43.6696C110.048 46.6467 109.186 47.9855 109.445 49.5387C109.704 51.092 110.351 51.7391 114.881 51.7391C119.411 51.7391 120.059 51.092 120.317 49.5387C120.576 47.9855 119.67 46.6911 118.505 43.7141C117.573 41.3325 118.03 37.1129 118.332 35.3008Z" fill="#BDBDBD" stroke="white" id="nose"/>
<path d="M123.38 58.9872C123.38 55.8807 117.771 54.8453 114.966 54.7158H114.837C112.032 54.8453 106.423 55.8807 106.423 58.9872C106.423 62.0937 112.032 62.9566 114.837 62.9997H114.966C117.771 62.9566 123.38 62.0937 123.38 58.9872Z" fill="#BDBDBD" stroke="white" id="mouth"/>
<path d="M122.991 69.8601C121.645 66.0288 117.037 64.7689 114.966 64.6826H114.837C112.766 64.7689 108.029 66.0288 106.682 69.8601C107.847 70.5072 111.523 72.4488 114.837 72.4488H114.966C118.28 72.4488 121.826 70.5072 122.991 69.8601Z" fill="#BDBDBD" stroke="white" id="chin"/>
</svg>
